<svg width="60" height="60" viewBox="0 0 60 60" fill="none" xmlns="http://www.w3.org/2000/svg">
<g clip-path="url(#clip0_9_1929)">
<g clip-path="url(#clip1_9_1929)">
<path d="M36.7239 13.4212C30.9209 13.4212 25.2012 15.9126 20.8345 20.8107V-3.34375H12.1934V37.3218C12.1934 37.3227 12.1934 37.3237 12.1934 37.3248C12.1934 50.5263 22.8952 61.2281 36.0968 61.2281C49.2982 61.2281 60.0002 50.5263 60.0002 37.3248C60.0002 24.1234 49.9254 13.4212 36.7239 13.4212ZM36.0968 52.0214C27.9799 52.0214 21.3999 45.4414 21.3999 37.3247C21.3999 29.2078 27.9799 22.6278 36.0968 22.6278C44.2135 22.6278 50.7935 29.2078 50.7935 37.3247C50.7935 45.4415 44.2135 52.0214 36.0968 52.0214Z" fill="#262626"/>
<path d="M5.91092 49.4062C2.64632 49.4062 0 52.0527 0 55.3172C0 58.5816 2.64632 61.2281 5.91092 61.2281C9.17552 61.2281 11.8218 58.5816 11.8218 55.3172C11.8218 52.0527 9.17552 49.4062 5.91092 49.4062Z" fill="#0000FF"/>
</g>
</g>
<defs>
<clipPath id="clip0_9_1929">
<rect width="60" height="58" fill="white"/>
</clipPath>
<clipPath id="clip1_9_1929">
<rect width="60" height="64.6875" fill="white" transform="translate(0 -3.34375)"/>
</clipPath>
</defs>
</svg>
