<svg width="87" height="84" viewBox="0 0 87 84" fill="none" xmlns="http://www.w3.org/2000/svg">
<g clip-path="url(#clip0_9_1177)">
<g clip-path="url(#clip1_9_1177)">
<g clip-path="url(#clip2_9_1177)">
<path d="M52.6578 19.2486C44.3401 19.2486 36.1419 22.8195 29.883 29.8401V-4.78125H17.4973V53.506C17.4973 53.5074 17.4973 53.5088 17.4973 53.5104C17.4973 72.4324 32.8366 87.7717 51.7589 87.7717C70.6809 87.7717 86.0205 72.4324 86.0205 53.5104C86.0205 34.5884 71.5799 19.2486 52.6578 19.2486ZM51.7589 74.5755C40.1247 74.5755 30.6933 65.1441 30.6933 53.5102C30.6933 41.876 40.1247 32.4446 51.7589 32.4446C63.3928 32.4446 72.8242 41.876 72.8242 53.5102C72.8242 65.1443 63.3928 74.5755 51.7589 74.5755Z" fill="#262626"/>
<path d="M8.49283 70.8281C3.81357 70.8281 0.0205078 74.6214 0.0205078 79.3004C0.0205078 83.9795 3.81357 87.7728 8.49283 87.7728C13.1721 87.7728 16.9652 83.9795 16.9652 79.3004C16.9652 74.6214 13.1721 70.8281 8.49283 70.8281Z" fill="#0000FF"/>
</g>
</g>
</g>
<defs>
<clipPath id="clip0_9_1177">
<rect width="86" height="83" fill="white" transform="translate(0.0205078 0.078125)"/>
</clipPath>
<clipPath id="clip1_9_1177">
<rect width="86" height="83" fill="white" transform="translate(0.0205078 0.078125)"/>
</clipPath>
<clipPath id="clip2_9_1177">
<rect width="86" height="92.7188" fill="white" transform="translate(0.0205078 -4.78125)"/>
</clipPath>
</defs>
</svg>
