<svg width="87" height="84" viewBox="0 0 87 84" fill="none" xmlns="http://www.w3.org/2000/svg">
<g clip-path="url(#clip0_9_924)">
<g clip-path="url(#clip1_9_924)">
<g clip-path="url(#clip2_9_924)">
<path d="M52.6578 19.858C44.3401 19.858 36.1419 23.4289 29.883 30.4495V-4.17188H17.4973V54.1154C17.4973 54.1168 17.4973 54.1182 17.4973 54.1198C17.4973 73.0418 32.8366 88.3811 51.7589 88.3811C70.6809 88.3811 86.0205 73.0418 86.0205 54.1198C86.0205 35.1977 71.5799 19.858 52.6578 19.858ZM51.7589 75.1849C40.1247 75.1849 30.6933 65.7535 30.6933 54.1195C30.6933 42.4854 40.1247 33.054 51.7589 33.054C63.3928 33.054 72.8242 42.4854 72.8242 54.1195C72.8242 65.7537 63.3928 75.1849 51.7589 75.1849Z" fill="#262626"/>
<path d="M8.49283 71.4375C3.81357 71.4375 0.0205078 75.2308 0.0205078 79.9098C0.0205078 84.5889 3.81357 88.3821 8.49283 88.3821C13.1721 88.3821 16.9652 84.5889 16.9652 79.9098C16.9652 75.2308 13.1721 71.4375 8.49283 71.4375Z" fill="#0000FF"/>
</g>
</g>
</g>
<defs>
<clipPath id="clip0_9_924">
<rect width="86" height="83" fill="white" transform="translate(0.0205078 0.6875)"/>
</clipPath>
<clipPath id="clip1_9_924">
<rect width="86" height="83" fill="white" transform="translate(0.0205078 0.6875)"/>
</clipPath>
<clipPath id="clip2_9_924">
<rect width="86" height="92.7188" fill="white" transform="translate(0.0205078 -4.17188)"/>
</clipPath>
</defs>
</svg>
