<svg width="71" height="71" viewBox="0 0 71 71" fill="none" xmlns="http://www.w3.org/2000/svg">
<g clip-path="url(#clip0_9_1404)">
<g clip-path="url(#clip1_9_1404)">
<g clip-path="url(#clip2_9_1404)">
<g clip-path="url(#clip3_9_1404)">
<path d="M59.2006 0.285156H12.7394C5.69525 0.285156 0 5.98041 0 13.0245V57.6873C0 64.7314 5.69525 70.4267 12.7394 70.4267H59.2006C66.2448 70.4267 71.94 64.7314 71.94 57.6873V13.0245C71.94 5.98041 66.2448 0.285156 59.2006 0.285156ZM37.0491 35.206C35.8501 36.8846 34.1715 38.1436 32.2231 38.863C30.1848 39.6124 27.9367 39.8821 25.4788 39.8821C24.7593 39.8821 24.2798 39.8821 23.98 39.8522C23.6803 39.8222 23.2606 39.8222 22.6911 39.8222V49.4442C22.721 49.654 22.5712 49.8338 22.3613 49.8638H16.5462C16.3064 49.8638 16.1865 49.7439 16.1865 49.4741V18.6299C16.1865 18.42 16.2764 18.3001 16.4862 18.3001C16.9958 18.3001 17.4754 18.3001 18.1649 18.2702C18.8842 18.2402 19.6336 18.2402 20.4429 18.2102C21.2523 18.1802 22.1215 18.1802 23.0508 18.1503C23.98 18.1203 24.8792 18.1203 25.7785 18.1203C28.2365 18.1203 30.2747 18.42 31.9534 19.0495C33.4521 19.5591 34.831 20.3984 35.97 21.5075C36.9292 22.4667 37.6786 23.6357 38.1582 24.9246C38.6078 26.1836 38.8476 27.4725 38.8476 28.8214C38.8476 31.3992 38.2481 33.5274 37.0491 35.206ZM58.3014 46.8663C57.4621 48.0653 56.2931 48.9945 54.9442 49.5341C53.4754 50.1636 51.6769 50.4933 49.5187 50.4933C48.1399 50.4933 46.791 50.3734 45.4421 50.1036C44.393 49.9238 43.3438 49.594 42.3846 49.1444C42.1748 49.0245 42.025 48.8147 42.0549 48.5749V43.3592C42.0549 43.2693 42.0849 43.1494 42.1748 43.0895C42.2647 43.0295 42.3547 43.0595 42.4446 43.1194C43.6136 43.8089 44.8426 44.2885 46.1615 44.5882C47.3005 44.888 48.4995 45.0378 49.6986 45.0378C50.8976 45.0378 51.6469 44.888 52.1865 44.6182C52.6661 44.4084 52.9958 43.8988 52.9958 43.3592C52.9958 42.9396 52.756 42.5499 52.2764 42.1602C51.7968 41.7706 50.8076 41.3209 49.3389 40.7514C47.8101 40.2119 46.4013 39.4925 45.0824 38.5932C44.1532 37.9338 43.3738 37.0645 42.8043 36.0453C42.3247 35.0861 42.0849 34.037 42.1149 32.9879C42.1149 31.699 42.4746 30.47 43.134 29.3609C43.8834 28.1619 44.9925 27.2027 46.2814 26.6032C47.6902 25.8838 49.4588 25.5541 51.587 25.5541C52.816 25.5541 54.0749 25.644 55.3039 25.8239C56.2031 25.9438 57.0724 26.1836 57.8817 26.5133C58.0016 26.5433 58.1215 26.6632 58.1815 26.7831C58.2115 26.903 58.2414 27.0229 58.2414 27.1428V32.0287C58.2414 32.1486 58.1815 32.2685 58.0916 32.3284C57.8218 32.3884 57.6719 32.3884 57.552 32.3284C56.6528 31.8488 55.6936 31.5191 54.6744 31.3093C53.5653 31.0695 52.4562 30.9196 51.3172 30.9196C50.7177 30.8896 50.0882 30.9796 49.5187 31.1294C49.129 31.2194 48.7993 31.4292 48.5895 31.7289C48.4396 31.9687 48.3497 32.2685 48.3497 32.5383C48.3497 32.808 48.4696 33.0778 48.6494 33.3176C48.9192 33.6473 49.2789 33.9171 49.6686 34.1269C50.358 34.4866 51.0774 34.8164 51.7968 35.1161C53.4155 35.6557 54.9741 36.405 56.4129 37.3043C57.4021 37.9338 58.2115 38.7731 58.781 39.7922C59.2606 40.7514 59.5004 41.8005 59.4704 42.8796C59.5004 44.2885 59.0807 45.6973 58.3014 46.8663Z" fill="white"/>
<path d="M29.5255 24.6261C28.4164 24.1765 27.2174 23.9967 25.9885 24.0266C25.2091 24.0266 24.5197 24.0266 23.9502 24.0566C23.3507 24.0266 22.931 24.0566 22.7212 24.0866V34.1582C23.1408 34.1882 23.5305 34.2181 23.8902 34.2181H25.4789C26.6479 34.2181 27.8169 34.0383 28.926 33.6786C29.8852 33.4088 30.7245 32.8393 31.384 32.0899C32.0134 31.3405 32.3132 30.3214 32.3132 29.0025C32.3432 28.0733 32.1034 27.144 31.6238 26.3347C31.1142 25.5554 30.3948 24.9559 29.5255 24.6261Z" fill="white"/>
</g>
</g>
</g>
</g>
<defs>
<clipPath id="clip0_9_1404">
<rect width="71" height="70" fill="white" transform="translate(0 0.636719)"/>
</clipPath>
<clipPath id="clip1_9_1404">
<rect width="71" height="70" fill="white" transform="translate(0 0.636719)"/>
</clipPath>
<clipPath id="clip2_9_1404">
<rect width="71.94" height="69.44" fill="white" transform="translate(0 0.636719)"/>
</clipPath>
<clipPath id="clip3_9_1404">
<rect width="71.94" height="70.1415" fill="white" transform="translate(0 0.285156)"/>
</clipPath>
</defs>
</svg>
