<svg width="72" height="71" viewBox="0 0 72 71" fill="none" xmlns="http://www.w3.org/2000/svg">
<g clip-path="url(#clip0_9_1446)">
<g clip-path="url(#clip1_9_1446)">
<g clip-path="url(#clip2_9_1446)">
<g clip-path="url(#clip3_9_1446)">
<path d="M44.0318 16.6794C37.0739 16.6794 30.2161 19.6665 24.9804 25.5393V-3.42188H14.6196V45.3361C14.6196 45.3372 14.6196 45.3384 14.6196 45.3398C14.6196 61.1683 27.4511 73.9998 43.2798 73.9998C59.1084 73.9998 71.9401 61.1683 71.9401 45.3398C71.9401 29.5112 59.8603 16.6794 44.0318 16.6794ZM43.2798 62.961C33.5477 62.961 25.6582 55.0715 25.6582 45.3396C25.6582 35.6074 33.5477 27.718 43.2798 27.718C53.0118 27.718 60.9013 35.6074 60.9013 45.3396C60.9013 55.0717 53.0118 62.961 43.2798 62.961Z" fill="#262626"/>
<path d="M7.0872 59.8242C3.17294 59.8242 0 62.9974 0 66.9114C0 70.8255 3.17294 73.9986 7.0872 73.9986C11.0015 73.9986 14.1744 70.8255 14.1744 66.9114C14.1744 62.9974 11.0015 59.8242 7.0872 59.8242Z" fill="#0000FF"/>
</g>
</g>
</g>
</g>
<defs>
<clipPath id="clip0_9_1446">
<rect width="71.94" height="69.44" fill="white" transform="translate(0 0.636719)"/>
</clipPath>
<clipPath id="clip1_9_1446">
<rect width="71.94" height="69.44" fill="white" transform="translate(0 0.636719)"/>
</clipPath>
<clipPath id="clip2_9_1446">
<rect width="71.94" height="69.44" fill="white" transform="translate(0 0.636719)"/>
</clipPath>
<clipPath id="clip3_9_1446">
<rect width="71.94" height="77.5603" fill="white" transform="translate(0 -3.42188)"/>
</clipPath>
</defs>
</svg>
