<svg width="72" height="71" viewBox="0 0 72 71" fill="none" xmlns="http://www.w3.org/2000/svg">
<g clip-path="url(#clip0_9_1435)">
<g clip-path="url(#clip1_9_1435)">
<g clip-path="url(#clip2_9_1435)">
<g clip-path="url(#clip3_9_1435)">
<path d="M35.97 71.3267C55.8357 71.3267 71.94 55.2224 71.94 35.3567C71.94 15.491 55.8357 -0.613281 35.97 -0.613281C16.1043 -0.613281 0 15.491 0 35.3567C0 55.2224 16.1043 71.3267 35.97 71.3267Z" fill="#4353FF"/>
<path d="M46.5361 31.0849L43.2764 41.3589C43.2764 40.572 41.0282 23.5312 41.0282 23.5312C35.8575 23.5312 33.1148 27.1957 31.676 31.0849L27.6968 41.3814C27.6968 40.6395 27.1348 31.1749 27.1348 31.1749C26.9429 29.126 26.0062 27.2186 24.5022 25.8141C22.9982 24.4095 21.0313 23.6053 18.9741 23.5537L23.2006 49.3622C28.5961 49.3622 31.5187 45.6978 33.0249 41.8085L36.3971 33.0408C36.3971 33.4005 38.6452 49.3622 38.6452 49.3622C40.8515 49.3594 42.9996 48.654 44.7781 47.3484C46.5566 46.0428 47.8732 44.2048 48.537 42.1008L56.1806 23.5312C50.7851 23.5312 47.9525 27.1957 46.5137 31.0849H46.5361Z" fill="white"/>
</g>
</g>
</g>
</g>
<defs>
<clipPath id="clip0_9_1435">
<rect width="71.94" height="69.44" fill="white" transform="translate(0 0.636719)"/>
</clipPath>
<clipPath id="clip1_9_1435">
<rect width="71.94" height="69.44" fill="white" transform="translate(0 0.636719)"/>
</clipPath>
<clipPath id="clip2_9_1435">
<rect width="71.94" height="69.44" fill="white" transform="translate(0 0.636719)"/>
</clipPath>
<clipPath id="clip3_9_1435">
<rect width="71.94" height="71.94" fill="white" transform="translate(0 -0.613281)"/>
</clipPath>
</defs>
</svg>
