<svg width="72" height="71" viewBox="0 0 72 71" fill="none" xmlns="http://www.w3.org/2000/svg">
<g clip-path="url(#clip0_11_35)">
<g clip-path="url(#clip1_11_35)">
<g clip-path="url(#clip2_11_35)">
<g clip-path="url(#clip3_11_35)">
<path d="M59.2211 -0.273438H12.7599C5.71576 -0.273438 0.0205078 5.42181 0.0205078 12.4659V57.1287C0.0205078 64.1728 5.71576 69.8681 12.7599 69.8681H59.2211C66.2653 69.8681 71.9605 64.1728 71.9605 57.1287V12.4659C71.9605 5.42181 66.2653 -0.273438 59.2211 -0.273438ZM37.0696 34.6474C35.8706 36.326 34.192 37.585 32.2436 38.3044C30.2053 39.0538 27.9572 39.3235 25.4993 39.3235C24.7799 39.3235 24.3003 39.3235 24.0005 39.2936C23.7008 39.2636 23.2811 39.2636 22.7116 39.2636V48.8856C22.7416 49.0954 22.5917 49.2752 22.3819 49.3052H16.5667C16.3269 49.3052 16.207 49.1853 16.207 48.9155V18.0713C16.207 17.8614 16.2969 17.7415 16.5068 17.7415C17.0163 17.7415 17.4959 17.7415 18.1854 17.7116C18.9048 17.6816 19.6541 17.6816 20.4635 17.6516C21.2728 17.6216 22.1421 17.6216 23.0713 17.5917C24.0005 17.5617 24.8998 17.5617 25.799 17.5617C28.257 17.5617 30.2953 17.8614 31.9739 18.4909C33.4726 19.0005 34.8515 19.8398 35.9905 20.9489C36.9497 21.9081 37.6991 23.0771 38.1787 24.366C38.6283 25.625 38.8681 26.9139 38.8681 28.2628C38.8681 30.8406 38.2686 32.9688 37.0696 34.6474ZM58.3219 46.3077C57.4826 47.5067 56.3136 48.4359 54.9647 48.9755C53.4959 49.605 51.6974 49.9347 49.5392 49.9347C48.1604 49.9347 46.8115 49.8148 45.4626 49.545C44.4135 49.3652 43.3644 49.0354 42.4052 48.5858C42.1953 48.4659 42.0455 48.2561 42.0754 48.0163V42.8006C42.0754 42.7107 42.1054 42.5908 42.1953 42.5309C42.2853 42.4709 42.3752 42.5009 42.4651 42.5608C43.6341 43.2503 44.8631 43.7299 46.182 44.0296C47.3211 44.3294 48.5201 44.4792 49.7191 44.4792C50.9181 44.4792 51.6674 44.3294 52.207 44.0596C52.6866 43.8498 53.0163 43.3402 53.0163 42.8006C53.0163 42.381 52.7765 41.9913 52.2969 41.6016C51.8173 41.212 50.8281 40.7623 49.3594 40.1928C47.8306 39.6533 46.4218 38.9339 45.1029 38.0346C44.1737 37.3752 43.3943 36.5059 42.8248 35.4867C42.3452 34.5275 42.1054 33.4784 42.1354 32.4293C42.1354 31.1404 42.4951 29.9114 43.1545 28.8023C43.9039 27.6033 45.013 26.6441 46.3019 26.0446C47.7107 25.3252 49.4793 24.9955 51.6075 24.9955C52.8365 24.9955 54.0954 25.0854 55.3244 25.2653C56.2236 25.3852 57.0929 25.625 57.9022 25.9547C58.0221 25.9847 58.142 26.1046 58.202 26.2245C58.232 26.3444 58.2619 26.4643 58.2619 26.5842V31.4701C58.2619 31.59 58.202 31.7099 58.1121 31.7698C57.8423 31.8298 57.6924 31.8298 57.5725 31.7698C56.6733 31.2902 55.7141 30.9605 54.6949 30.7507C53.5858 30.5109 52.4768 30.361 51.3377 30.361C50.7382 30.331 50.1087 30.421 49.5392 30.5708C49.1495 30.6608 48.8198 30.8706 48.61 31.1703C48.4601 31.4101 48.3702 31.7099 48.3702 31.9797C48.3702 32.2494 48.4901 32.5192 48.6699 32.759C48.9397 33.0887 49.2994 33.3585 49.6891 33.5683C50.3785 33.928 51.0979 34.2578 51.8173 34.5575C53.436 35.0971 54.9947 35.8464 56.4335 36.7457C57.4226 37.3752 58.232 38.2145 58.8015 39.2336C59.2811 40.1928 59.5209 41.2419 59.4909 42.321C59.5209 43.7299 59.1012 45.1387 58.3219 46.3077Z" fill="white"/>
<path d="M29.546 24.0675C28.4369 23.6179 27.2379 23.4381 26.009 23.468C25.2296 23.468 24.5402 23.468 23.9707 23.498C23.3712 23.468 22.9515 23.498 22.7417 23.528V33.5996C23.1613 33.6296 23.551 33.6595 23.9107 33.6595H25.4994C26.6684 33.6595 27.8374 33.4797 28.9465 33.12C29.9057 32.8502 30.745 32.2807 31.4045 31.5313C32.0339 30.7819 32.3337 29.7628 32.3337 28.4439C32.3637 27.5147 32.1239 26.5854 31.6443 25.7761C31.1347 24.9968 30.4153 24.3973 29.546 24.0675Z" fill="white"/>
</g>
</g>
</g>
</g>
<defs>
<clipPath id="clip0_11_35">
<rect width="71" height="70" fill="white" transform="translate(0.0205078 0.078125)"/>
</clipPath>
<clipPath id="clip1_11_35">
<rect width="71" height="70" fill="white" transform="translate(0.0205078 0.078125)"/>
</clipPath>
<clipPath id="clip2_11_35">
<rect width="71.94" height="69.44" fill="white" transform="translate(0.0205078 0.078125)"/>
</clipPath>
<clipPath id="clip3_11_35">
<rect width="71.94" height="70.1415" fill="white" transform="translate(0.0205078 -0.273438)"/>
</clipPath>
</defs>
</svg>
