<svg width="72" height="71" viewBox="0 0 72 71" fill="none" xmlns="http://www.w3.org/2000/svg">
<g clip-path="url(#clip0_11_65)">
<g clip-path="url(#clip1_11_65)">
<g clip-path="url(#clip2_11_65)">
<g clip-path="url(#clip3_11_65)">
<path d="M35.9905 70.7681C55.8562 70.7681 71.9605 54.6638 71.9605 34.7981C71.9605 14.9324 55.8562 -1.17188 35.9905 -1.17188C16.1248 -1.17188 0.0205078 14.9324 0.0205078 34.7981C0.0205078 54.6638 16.1248 70.7681 35.9905 70.7681Z" fill="#4353FF"/>
<path d="M46.5566 30.5263L43.2969 40.8003C43.2969 40.0134 41.0487 22.9727 41.0487 22.9727C35.878 22.9727 33.1353 26.6371 31.6965 30.5263L27.7174 40.8228C27.7174 40.0809 27.1553 30.6163 27.1553 30.6163C26.9634 28.5674 26.0267 26.66 24.5227 25.2555C23.0187 23.8509 21.0518 23.0467 18.9946 22.9951L23.2211 48.8036C28.6166 48.8036 31.5392 45.1392 33.0454 41.2499L36.4176 32.4822C36.4176 32.8419 38.6657 48.8036 38.6657 48.8036C40.872 48.8008 43.0201 48.0954 44.7986 46.7898C46.5771 45.4843 47.8937 43.6462 48.5575 41.5422L56.2011 22.9727C50.8056 22.9727 47.973 26.6371 46.5342 30.5263H46.5566Z" fill="white"/>
</g>
</g>
</g>
</g>
<defs>
<clipPath id="clip0_11_65">
<rect width="71.94" height="69.44" fill="white" transform="translate(0.0205078 0.078125)"/>
</clipPath>
<clipPath id="clip1_11_65">
<rect width="71.94" height="69.44" fill="white" transform="translate(0.0205078 0.078125)"/>
</clipPath>
<clipPath id="clip2_11_65">
<rect width="71.94" height="69.44" fill="white" transform="translate(0.0205078 0.078125)"/>
</clipPath>
<clipPath id="clip3_11_65">
<rect width="71.94" height="71.94" fill="white" transform="translate(0.0205078 -1.17188)"/>
</clipPath>
</defs>
</svg>
