<svg width="72" height="71" viewBox="0 0 72 71" fill="none" xmlns="http://www.w3.org/2000/svg">
<g clip-path="url(#clip0_11_76)">
<g clip-path="url(#clip1_11_76)">
<g clip-path="url(#clip2_11_76)">
<g clip-path="url(#clip3_11_76)">
<path d="M44.0523 16.1208C37.0944 16.1208 30.2366 19.1079 25.0009 24.9807V-3.98047H14.6401V44.7775C14.6401 44.7786 14.6401 44.7798 14.6401 44.7812C14.6401 60.6097 27.4716 73.4412 43.3004 73.4412C59.1289 73.4412 71.9606 60.6097 71.9606 44.7812C71.9606 28.9527 59.8808 16.1208 44.0523 16.1208ZM43.3004 62.4024C33.5682 62.4024 25.6788 54.5129 25.6788 44.781C25.6788 35.0489 33.5682 27.1594 43.3004 27.1594C53.0323 27.1594 60.9218 35.0489 60.9218 44.781C60.9218 54.5131 53.0323 62.4024 43.3004 62.4024Z" fill="#262626"/>
<path d="M7.1077 59.2656C3.19345 59.2656 0.0205078 62.4388 0.0205078 66.3528C0.0205078 70.2669 3.19345 73.44 7.1077 73.44C11.022 73.44 14.1949 70.2669 14.1949 66.3528C14.1949 62.4388 11.022 59.2656 7.1077 59.2656Z" fill="#0000FF"/>
</g>
</g>
</g>
</g>
<defs>
<clipPath id="clip0_11_76">
<rect width="71.94" height="69.44" fill="white" transform="translate(0.0205078 0.078125)"/>
</clipPath>
<clipPath id="clip1_11_76">
<rect width="71.94" height="69.44" fill="white" transform="translate(0.0205078 0.078125)"/>
</clipPath>
<clipPath id="clip2_11_76">
<rect width="71.94" height="69.44" fill="white" transform="translate(0.0205078 0.078125)"/>
</clipPath>
<clipPath id="clip3_11_76">
<rect width="71.94" height="77.5603" fill="white" transform="translate(0.0205078 -3.98047)"/>
</clipPath>
</defs>
</svg>
