<svg width="31" height="31" viewBox="0 0 31 31" fill="none" xmlns="http://www.w3.org/2000/svg">
<path d="M15.4834 7.49815C11.2268 7.49815 7.79342 10.9315 7.79342 15.188C7.79342 19.4447 11.2268 22.8779 15.4834 22.8779C19.7399 22.8779 23.1732 19.4447 23.1732 15.188C23.1732 10.9315 19.7399 7.49815 15.4834 7.49815ZM15.4834 20.1875C12.7326 20.1875 10.4839 17.9454 10.4839 15.188C10.4839 12.4307 12.7259 10.1886 15.4834 10.1886C18.2407 10.1886 20.4827 12.4307 20.4827 15.188C20.4827 17.9454 18.234 20.1875 15.4834 20.1875ZM25.2815 7.1836C25.2815 8.18081 24.4784 8.97724 23.4877 8.97724C22.4906 8.97724 21.6941 8.17411 21.6941 7.1836C21.6941 6.19307 22.4972 5.38996 23.4877 5.38996C24.4784 5.38996 25.2815 6.19307 25.2815 7.1836ZM30.3746 9.00401C30.2609 6.60134 29.712 4.47306 27.9519 2.71957C26.1984 0.966085 24.0701 0.417284 21.6674 0.296816C19.1911 0.15627 11.7689 0.15627 9.29258 0.296816C6.89661 0.410592 4.76833 0.959393 3.00814 2.71287C1.24797 4.46636 0.705859 6.59464 0.58539 8.99732C0.444844 11.4736 0.444844 18.8958 0.58539 21.3721C0.699167 23.7748 1.24797 25.903 3.00814 27.6565C4.76833 29.41 6.88991 29.9588 9.29258 30.0793C11.7689 30.2198 19.1911 30.2198 21.6674 30.0793C24.0701 29.9655 26.1984 29.4167 27.9519 27.6565C29.7054 25.903 30.2541 23.7748 30.3746 21.3721C30.5151 18.8958 30.5151 11.4803 30.3746 9.00401ZM27.1755 24.029C26.6535 25.3409 25.6429 26.3514 24.3244 26.8802C22.35 27.6633 17.6651 27.4825 15.4834 27.4825C13.3015 27.4825 8.60993 27.6565 6.64228 26.8802C5.33051 26.3582 4.31992 25.3475 3.79119 24.029C3.00814 22.0548 3.18884 17.3699 3.18884 15.188C3.18884 13.0063 3.01484 8.31466 3.79119 6.34701C4.31322 5.03525 5.32382 4.02465 6.64228 3.49592C8.61662 2.71287 13.3015 2.89359 15.4834 2.89359C17.6651 2.89359 22.3567 2.71957 24.3244 3.49592C25.6361 4.01795 26.6467 5.02855 27.1755 6.34701C27.9585 8.32136 27.7779 13.0063 27.7779 15.188C27.7779 17.3699 27.9585 22.0614 27.1755 24.029Z" fill="black"/>
</svg>
