<svg width="31" height="31" viewBox="0 0 31 31" fill="none" xmlns="http://www.w3.org/2000/svg">
<path d="M15.9829 8.23252C11.7263 8.23252 8.29293 11.6659 8.29293 15.9224C8.29293 20.179 11.7263 23.6123 15.9829 23.6123C20.2394 23.6123 23.6727 20.179 23.6727 15.9224C23.6727 11.6659 20.2394 8.23252 15.9829 8.23252ZM15.9829 20.9219C13.2321 20.9219 10.9834 18.6798 10.9834 15.9224C10.9834 13.165 13.2255 10.923 15.9829 10.923C18.7402 10.923 20.9822 13.165 20.9822 15.9224C20.9822 18.6798 18.7335 20.9219 15.9829 20.9219ZM25.781 7.91797C25.781 8.91519 24.9779 9.71161 23.9872 9.71161C22.9901 9.71161 22.1936 8.90849 22.1936 7.91797C22.1936 6.92745 22.9967 6.12434 23.9872 6.12434C24.9779 6.12434 25.781 6.92745 25.781 7.91797ZM30.8741 9.73839C30.7604 7.33571 30.2115 5.20744 28.4514 3.45395C26.6979 1.70046 24.5696 1.15166 22.1669 1.03119C19.6906 0.890645 12.2684 0.890645 9.79209 1.03119C7.39612 1.14497 5.26784 1.69377 3.50765 3.44725C1.74748 5.20074 1.20537 7.32901 1.0849 9.7317C0.944356 12.208 0.944356 19.6302 1.0849 22.1064C1.19868 24.5092 1.74748 26.6374 3.50765 28.3909C5.26784 30.1444 7.38942 30.6932 9.79209 30.8137C12.2684 30.9542 19.6906 30.9542 22.1669 30.8137C24.5696 30.6999 26.6979 30.151 28.4514 28.3909C30.2049 26.6374 30.7536 24.5092 30.8741 22.1064C31.0146 19.6302 31.0146 12.2147 30.8741 9.73839ZM27.675 24.7634C27.153 26.0753 26.1424 27.0858 24.8239 27.6145C22.8495 28.3977 18.1646 28.2169 15.9829 28.2169C13.801 28.2169 9.10944 28.3909 7.14179 27.6145C5.83002 27.0926 4.81943 26.0819 4.2907 24.7634C3.50765 22.7892 3.68835 18.1043 3.68835 15.9224C3.68835 13.7407 3.51435 9.04904 4.2907 7.08139C4.81273 5.76962 5.82333 4.75902 7.14179 4.2303C9.11613 3.44725 13.801 3.62796 15.9829 3.62796C18.1646 3.62796 22.8562 3.45395 24.8239 4.2303C26.1356 4.75232 27.1462 5.76292 27.675 7.08139C28.458 9.05574 28.2774 13.7407 28.2774 15.9224C28.2774 18.1043 28.458 22.7958 27.675 24.7634Z" fill="black"/>
</svg>
