<svg width="30" height="30" viewBox="0 0 30 30" fill="none" xmlns="http://www.w3.org/2000/svg">
<path d="M15.0034 7.31065C10.7468 7.31065 7.31344 10.744 7.31344 15.0005C7.31344 19.2572 10.7468 22.6904 15.0034 22.6904C19.2599 22.6904 22.6933 19.2572 22.6933 15.0005C22.6933 10.744 19.2599 7.31065 15.0034 7.31065ZM15.0034 20C12.2527 20 10.0039 17.7579 10.0039 15.0005C10.0039 12.2432 12.246 10.0011 15.0034 10.0011C17.7607 10.0011 20.0027 12.2432 20.0027 15.0005C20.0027 17.7579 17.754 20 15.0034 20ZM24.8015 6.9961C24.8015 7.99331 23.9984 8.78974 23.0078 8.78974C22.0106 8.78974 21.2141 7.98661 21.2141 6.9961C21.2141 6.00557 22.0173 5.20246 23.0078 5.20246C23.9984 5.20246 24.8015 6.00557 24.8015 6.9961ZM29.8946 8.81651C29.7809 6.41384 29.232 4.28556 27.4719 2.53207C25.7184 0.778585 23.5901 0.229784 21.1874 0.109316C18.7111 -0.0312304 11.2889 -0.0312304 8.8126 0.109316C6.41663 0.223092 4.28835 0.771893 2.52816 2.52537C0.767986 4.27886 0.225879 6.40714 0.10541 8.80982C-0.0351366 11.2861 -0.0351366 18.7083 0.10541 21.1846C0.219186 23.5873 0.767986 25.7155 2.52816 27.469C4.28835 29.2225 6.40992 29.7713 8.8126 29.8918C11.2889 30.0323 18.7111 30.0323 21.1874 29.8918C23.5901 29.778 25.7184 29.2292 27.4719 27.469C29.2254 25.7155 29.7741 23.5873 29.8946 21.1846C30.0351 18.7083 30.0351 11.2928 29.8946 8.81651ZM26.6955 23.8415C26.1735 25.1534 25.1629 26.1639 23.8444 26.6927C21.87 27.4758 17.1851 27.295 15.0034 27.295C12.8215 27.295 8.12995 27.469 6.1623 26.6927C4.85052 26.1707 3.83994 25.16 3.31121 23.8415C2.52816 21.8673 2.70886 17.1824 2.70886 15.0005C2.70886 12.8188 2.53486 8.12716 3.31121 6.15951C3.83324 4.84775 4.84384 3.83715 6.1623 3.30842C8.13664 2.52537 12.8215 2.70609 15.0034 2.70609C17.1851 2.70609 21.8768 2.53207 23.8444 3.30842C25.1561 3.83045 26.1667 4.84105 26.6955 6.15951C27.4785 8.13386 27.2979 12.8188 27.2979 15.0005C27.2979 17.1824 27.4785 21.8739 26.6955 23.8415Z" fill="black"/>
</svg>
