<svg width="31" height="31" viewBox="0 0 31 31" fill="none" xmlns="http://www.w3.org/2000/svg">
<path d="M15.5034 7.49815C11.2468 7.49815 7.81344 10.9315 7.81344 15.188C7.81344 19.4447 11.2468 22.8779 15.5034 22.8779C19.7599 22.8779 23.1933 19.4447 23.1933 15.188C23.1933 10.9315 19.7599 7.49815 15.5034 7.49815ZM15.5034 20.1875C12.7527 20.1875 10.5039 17.9454 10.5039 15.188C10.5039 12.4307 12.746 10.1886 15.5034 10.1886C18.2607 10.1886 20.5027 12.4307 20.5027 15.188C20.5027 17.9454 18.254 20.1875 15.5034 20.1875ZM25.3015 7.1836C25.3015 8.18081 24.4984 8.97724 23.5078 8.97724C22.5106 8.97724 21.7141 8.17411 21.7141 7.1836C21.7141 6.19307 22.5173 5.38996 23.5078 5.38996C24.4984 5.38996 25.3015 6.19307 25.3015 7.1836ZM30.3946 9.00401C30.2809 6.60134 29.732 4.47306 27.9719 2.71957C26.2184 0.966085 24.0901 0.417284 21.6874 0.296816C19.2111 0.15627 11.7889 0.15627 9.3126 0.296816C6.91663 0.410592 4.78835 0.959393 3.02816 2.71287C1.26799 4.46636 0.725879 6.59464 0.60541 8.99732C0.464863 11.4736 0.464863 18.8958 0.60541 21.3721C0.719186 23.7748 1.26799 25.903 3.02816 27.6565C4.78835 29.41 6.90992 29.9588 9.3126 30.0793C11.7889 30.2198 19.2111 30.2198 21.6874 30.0793C24.0901 29.9655 26.2184 29.4167 27.9719 27.6565C29.7254 25.903 30.2741 23.7748 30.3946 21.3721C30.5351 18.8958 30.5351 11.4803 30.3946 9.00401ZM27.1955 24.029C26.6735 25.3409 25.6629 26.3514 24.3444 26.8802C22.37 27.6633 17.6851 27.4825 15.5034 27.4825C13.3215 27.4825 8.62995 27.6565 6.6623 26.8802C5.35052 26.3582 4.33994 25.3475 3.81121 24.029C3.02816 22.0548 3.20886 17.3699 3.20886 15.188C3.20886 13.0063 3.03486 8.31466 3.81121 6.34701C4.33324 5.03525 5.34384 4.02465 6.6623 3.49592C8.63664 2.71287 13.3215 2.89359 15.5034 2.89359C17.6851 2.89359 22.3768 2.71957 24.3444 3.49592C25.6561 4.01795 26.6667 5.02855 27.1955 6.34701C27.9785 8.32136 27.7979 13.0063 27.7979 15.188C27.7979 17.3699 27.9785 22.0614 27.1955 24.029Z" fill="black"/>
</svg>
