<svg width="31" height="31" viewBox="0 0 31 31" fill="none" xmlns="http://www.w3.org/2000/svg">
<path d="M15.4834 8.10752C11.2268 8.10752 7.79342 11.5409 7.79342 15.7974C7.79342 20.054 11.2268 23.4873 15.4834 23.4873C19.7399 23.4873 23.1732 20.054 23.1732 15.7974C23.1732 11.5409 19.7399 8.10752 15.4834 8.10752ZM15.4834 20.7969C12.7326 20.7969 10.4839 18.5548 10.4839 15.7974C10.4839 13.04 12.7259 10.798 15.4834 10.798C18.2407 10.798 20.4827 13.04 20.4827 15.7974C20.4827 18.5548 18.234 20.7969 15.4834 20.7969ZM25.2815 7.79297C25.2815 8.79019 24.4784 9.58661 23.4877 9.58661C22.4906 9.58661 21.6941 8.78349 21.6941 7.79297C21.6941 6.80245 22.4972 5.99934 23.4877 5.99934C24.4784 5.99934 25.2815 6.80245 25.2815 7.79297ZM30.3746 9.61339C30.2609 7.21071 29.712 5.08244 27.9519 3.32895C26.1984 1.57546 24.0701 1.02666 21.6674 0.906191C19.1911 0.765645 11.7689 0.765645 9.29258 0.906191C6.89661 1.01997 4.76833 1.56877 3.00814 3.32225C1.24797 5.07574 0.705859 7.20401 0.58539 9.6067C0.444844 12.083 0.444844 19.5052 0.58539 21.9814C0.699167 24.3842 1.24797 26.5124 3.00814 28.2659C4.76833 30.0194 6.88991 30.5682 9.29258 30.6887C11.7689 30.8292 19.1911 30.8292 21.6674 30.6887C24.0701 30.5749 26.1984 30.026 27.9519 28.2659C29.7054 26.5124 30.2541 24.3842 30.3746 21.9814C30.5151 19.5052 30.5151 12.0897 30.3746 9.61339ZM27.1755 24.6384C26.6535 25.9503 25.6429 26.9608 24.3244 27.4895C22.35 28.2727 17.6651 28.0919 15.4834 28.0919C13.3015 28.0919 8.60993 28.2659 6.64228 27.4895C5.33051 26.9676 4.31992 25.9569 3.79119 24.6384C3.00814 22.6642 3.18884 17.9793 3.18884 15.7974C3.18884 13.6157 3.01484 8.92404 3.79119 6.95639C4.31322 5.64462 5.32382 4.63402 6.64228 4.1053C8.61662 3.32225 13.3015 3.50296 15.4834 3.50296C17.6651 3.50296 22.3567 3.32895 24.3244 4.1053C25.6361 4.62732 26.6467 5.63792 27.1755 6.95639C27.9585 8.93074 27.7779 13.6157 27.7779 15.7974C27.7779 17.9793 27.9585 22.6708 27.1755 24.6384Z" fill="black"/>
</svg>
