<svg width="31" height="30" viewBox="0 0 31 30" fill="none" xmlns="http://www.w3.org/2000/svg">
<path d="M15.4736 7.31065C11.217 7.31065 7.78365 10.744 7.78365 15.0005C7.78365 19.2572 11.217 22.6904 15.4736 22.6904C19.7301 22.6904 23.1635 19.2572 23.1635 15.0005C23.1635 10.744 19.7301 7.31065 15.4736 7.31065ZM15.4736 20C12.7229 20 10.4741 17.7579 10.4741 15.0005C10.4741 12.2432 12.7162 10.0011 15.4736 10.0011C18.231 10.0011 20.473 12.2432 20.473 15.0005C20.473 17.7579 18.2242 20 15.4736 20ZM25.2717 6.9961C25.2717 7.99331 24.4686 8.78974 23.478 8.78974C22.4808 8.78974 21.6843 7.98661 21.6843 6.9961C21.6843 6.00557 22.4875 5.20246 23.478 5.20246C24.4686 5.20246 25.2717 6.00557 25.2717 6.9961ZM30.3648 8.81651C30.2511 6.41384 29.7022 4.28556 27.9421 2.53207C26.1886 0.778585 24.0603 0.229784 21.6576 0.109316C19.1813 -0.0312304 11.7591 -0.0312304 9.28281 0.109316C6.88684 0.223092 4.75856 0.771893 2.99838 2.52537C1.2382 4.27886 0.696094 6.40714 0.575625 8.80982C0.435078 11.2861 0.435078 18.7083 0.575625 21.1846C0.689401 23.5873 1.2382 25.7155 2.99838 27.469C4.75856 29.2225 6.88014 29.7713 9.28281 29.8918C11.7591 30.0323 19.1813 30.0323 21.6576 29.8918C24.0603 29.778 26.1886 29.2292 27.9421 27.469C29.6956 25.7155 30.2443 23.5873 30.3648 21.1846C30.5053 18.7083 30.5053 11.2928 30.3648 8.81651ZM27.1657 23.8415C26.6437 25.1534 25.6331 26.1639 24.3146 26.6927C22.3402 27.4758 17.6553 27.295 15.4736 27.295C13.2917 27.295 8.60017 27.469 6.63251 26.6927C5.32074 26.1707 4.31015 25.16 3.78143 23.8415C2.99838 21.8673 3.17908 17.1824 3.17908 15.0005C3.17908 12.8188 3.00508 8.12716 3.78143 6.15951C4.30345 4.84775 5.31405 3.83715 6.63251 3.30842C8.60685 2.52537 13.2917 2.70609 15.4736 2.70609C17.6553 2.70609 22.347 2.53207 24.3146 3.30842C25.6263 3.83045 26.637 4.84105 27.1657 6.15951C27.9487 8.13386 27.7681 12.8188 27.7681 15.0005C27.7681 17.1824 27.9487 21.8739 27.1657 23.8415Z" fill="black"/>
</svg>
