<svg width="31" height="31" viewBox="0 0 31 31" fill="none" xmlns="http://www.w3.org/2000/svg">
<path d="M15.5034 8.10752C11.2468 8.10752 7.81344 11.5409 7.81344 15.7974C7.81344 20.054 11.2468 23.4873 15.5034 23.4873C19.7599 23.4873 23.1933 20.054 23.1933 15.7974C23.1933 11.5409 19.7599 8.10752 15.5034 8.10752ZM15.5034 20.7969C12.7527 20.7969 10.5039 18.5548 10.5039 15.7974C10.5039 13.04 12.746 10.798 15.5034 10.798C18.2607 10.798 20.5027 13.04 20.5027 15.7974C20.5027 18.5548 18.254 20.7969 15.5034 20.7969ZM25.3015 7.79297C25.3015 8.79019 24.4984 9.58661 23.5078 9.58661C22.5106 9.58661 21.7141 8.78349 21.7141 7.79297C21.7141 6.80245 22.5173 5.99934 23.5078 5.99934C24.4984 5.99934 25.3015 6.80245 25.3015 7.79297ZM30.3946 9.61339C30.2809 7.21071 29.732 5.08244 27.9719 3.32895C26.2184 1.57546 24.0901 1.02666 21.6874 0.906191C19.2111 0.765645 11.7889 0.765645 9.3126 0.906191C6.91663 1.01997 4.78835 1.56877 3.02816 3.32225C1.26799 5.07574 0.725879 7.20401 0.60541 9.6067C0.464863 12.083 0.464863 19.5052 0.60541 21.9814C0.719186 24.3842 1.26799 26.5124 3.02816 28.2659C4.78835 30.0194 6.90992 30.5682 9.3126 30.6887C11.7889 30.8292 19.2111 30.8292 21.6874 30.6887C24.0901 30.5749 26.2184 30.026 27.9719 28.2659C29.7254 26.5124 30.2741 24.3842 30.3946 21.9814C30.5351 19.5052 30.5351 12.0897 30.3946 9.61339ZM27.1955 24.6384C26.6735 25.9503 25.6629 26.9608 24.3444 27.4895C22.37 28.2727 17.6851 28.0919 15.5034 28.0919C13.3215 28.0919 8.62995 28.2659 6.6623 27.4895C5.35052 26.9676 4.33994 25.9569 3.81121 24.6384C3.02816 22.6642 3.20886 17.9793 3.20886 15.7974C3.20886 13.6157 3.03486 8.92404 3.81121 6.95639C4.33324 5.64462 5.34384 4.63402 6.6623 4.1053C8.63664 3.32225 13.3215 3.50296 15.5034 3.50296C17.6851 3.50296 22.3768 3.32895 24.3444 4.1053C25.6561 4.62732 26.6667 5.63792 27.1955 6.95639C27.9785 8.93074 27.7979 13.6157 27.7979 15.7974C27.7979 17.9793 27.9785 22.6708 27.1955 24.6384Z" fill="black"/>
</svg>
