<svg width="31" height="31" viewBox="0 0 31 31" fill="none" xmlns="http://www.w3.org/2000/svg">
<path d="M15.0429 7.70127C10.7863 7.70127 7.35299 11.1346 7.35299 15.3912C7.35299 19.6478 10.7863 23.081 15.0429 23.081C19.2994 23.081 22.7328 19.6478 22.7328 15.3912C22.7328 11.1346 19.2994 7.70127 15.0429 7.70127ZM15.0429 20.3907C12.2922 20.3907 10.0435 18.1486 10.0435 15.3912C10.0435 12.6338 12.2855 10.3917 15.0429 10.3917C17.8003 10.3917 20.0423 12.6338 20.0423 15.3912C20.0423 18.1486 17.7936 20.3907 15.0429 20.3907ZM24.8411 7.38672C24.8411 8.38394 24.0379 9.18036 23.0473 9.18036C22.0502 9.18036 21.2537 8.37724 21.2537 7.38672C21.2537 6.3962 22.0568 5.59309 23.0473 5.59309C24.0379 5.59309 24.8411 6.3962 24.8411 7.38672ZM29.9342 9.20714C29.8204 6.80446 29.2716 4.67619 27.5114 2.9227C25.7579 1.16921 23.6297 0.620409 21.2269 0.499941C18.7507 0.359395 11.3285 0.359395 8.85215 0.499941C6.45618 0.613717 4.3279 1.16252 2.56771 2.916C0.807537 4.66949 0.26543 6.79776 0.144961 9.20045C0.00441416 11.6767 0.00441416 19.0989 0.144961 21.5752C0.258737 23.9779 0.807537 26.1062 2.56771 27.8597C4.3279 29.6132 6.44948 30.1619 8.85215 30.2824C11.3285 30.4229 18.7507 30.4229 21.2269 30.2824C23.6297 30.1687 25.7579 29.6198 27.5114 27.8597C29.2649 26.1062 29.8137 23.9779 29.9342 21.5752C30.0747 19.0989 30.0747 11.6834 29.9342 9.20714ZM26.7351 24.2322C26.2131 25.544 25.2024 26.5546 23.8839 27.0833C21.9096 27.8664 17.2247 27.6857 15.0429 27.6857C12.8611 27.6857 8.1695 27.8597 6.20185 27.0833C4.89008 26.5613 3.87949 25.5507 3.35076 24.2322C2.56771 22.2579 2.74841 17.573 2.74841 15.3912C2.74841 13.2094 2.57441 8.51779 3.35076 6.55014C3.87279 5.23837 4.88339 4.22777 6.20185 3.69905C8.17619 2.916 12.8611 3.09671 15.0429 3.09671C17.2247 3.09671 21.9163 2.9227 23.8839 3.69905C25.1957 4.22107 26.2063 5.23167 26.7351 6.55014C27.5181 8.52449 27.3374 13.2094 27.3374 15.3912C27.3374 17.573 27.5181 22.2645 26.7351 24.2322Z" fill="black"/>
</svg>
