<svg width="31" height="31" viewBox="0 0 31 31" fill="none" xmlns="http://www.w3.org/2000/svg">
<path d="M15.7529 8.11143C11.4963 8.11143 8.06295 11.5448 8.06295 15.8013C8.06295 20.058 11.4963 23.4912 15.7529 23.4912C20.0094 23.4912 23.4428 20.058 23.4428 15.8013C23.4428 11.5448 20.0094 8.11143 15.7529 8.11143ZM15.7529 20.8008C13.0022 20.8008 10.7534 18.5587 10.7534 15.8013C10.7534 13.044 12.9955 10.8019 15.7529 10.8019C18.5103 10.8019 20.7523 13.044 20.7523 15.8013C20.7523 18.5587 18.5035 20.8008 15.7529 20.8008ZM25.551 7.79688C25.551 8.79409 24.7479 9.59052 23.7573 9.59052C22.7601 9.59052 21.9636 8.78739 21.9636 7.79688C21.9636 6.80636 22.7668 6.00324 23.7573 6.00324C24.7479 6.00324 25.551 6.80636 25.551 7.79688ZM30.6441 9.61729C30.5304 7.21462 29.9815 5.08634 28.2214 3.33286C26.4679 1.57937 24.3396 1.03057 21.9369 0.910097C19.4606 0.769551 12.0384 0.769551 9.56211 0.910097C7.16614 1.02387 5.03786 1.57267 3.27767 3.32616C1.5175 5.07964 0.97539 7.20792 0.854922 9.61061C0.714375 12.0869 0.714375 19.5091 0.854922 21.9853C0.968698 24.3881 1.5175 26.5163 3.27767 28.2698C5.03786 30.0233 7.15944 30.5721 9.56211 30.6926C12.0384 30.8331 19.4606 30.8331 21.9369 30.6926C24.3396 30.5788 26.4679 30.03 28.2214 28.2698C29.9749 26.5163 30.5236 24.3881 30.6441 21.9853C30.7846 19.5091 30.7846 12.0936 30.6441 9.61729ZM27.445 24.6423C26.923 25.9542 25.9124 26.9647 24.5939 27.4935C22.6195 28.2766 17.9346 28.0958 15.7529 28.0958C13.571 28.0958 8.87946 28.2698 6.91181 27.4935C5.60004 26.9715 4.58945 25.9608 4.06072 24.6423C3.27767 22.6681 3.45837 17.9832 3.45837 15.8013C3.45837 13.6196 3.28437 8.92794 4.06072 6.96029C4.58275 5.64853 5.59335 4.63793 6.91181 4.10921C8.88615 3.32616 13.571 3.50687 15.7529 3.50687C17.9346 3.50687 22.6263 3.33286 24.5939 4.10921C25.9056 4.63123 26.9163 5.64183 27.445 6.96029C28.228 8.93464 28.0474 13.6196 28.0474 15.8013C28.0474 17.9832 28.228 22.6747 27.445 24.6423Z" fill="black"/>
</svg>
