<svg width="86" height="84" viewBox="0 0 86 84" fill="none" xmlns="http://www.w3.org/2000/svg">
<g clip-path="url(#clip0_9_888)">
<g clip-path="url(#clip1_9_888)">
<g clip-path="url(#clip2_9_888)">
<path d="M70.7708 -0.238281H15.2292C6.80833 -0.238281 0 6.57005 0 14.9909V68.3826C0 76.8034 6.80833 83.6117 15.2292 83.6117H70.7708C79.1917 83.6117 86 76.8034 86 68.3826V14.9909C86 6.57005 79.1917 -0.238281 70.7708 -0.238281ZM44.29 41.5075C42.8567 43.5142 40.85 45.0192 38.5208 45.8792C36.0842 46.775 33.3967 47.0976 30.4583 47.0976C29.5983 47.0976 29.025 47.0975 28.6667 47.0617C28.3083 47.0259 27.8067 47.0259 27.1258 47.0259V58.5284C27.1617 58.7792 26.9825 58.9942 26.7317 59.03H19.78C19.4933 59.03 19.35 58.8867 19.35 58.5642V21.6917C19.35 21.4409 19.4575 21.2976 19.7083 21.2976C20.3175 21.2976 20.8908 21.2976 21.715 21.2617C22.575 21.2259 23.4708 21.2259 24.4383 21.1901C25.4058 21.1542 26.445 21.1542 27.5558 21.1184C28.6667 21.0826 29.7417 21.0826 30.8167 21.0826C33.755 21.0826 36.1917 21.4409 38.1983 22.1934C39.99 22.8026 41.6383 23.8059 43 25.1317C44.1467 26.2784 45.0425 27.6759 45.6158 29.2167C46.1533 30.7217 46.44 32.2626 46.44 33.875C46.44 36.9567 45.7233 39.5009 44.29 41.5075ZM69.6958 55.4467C68.6925 56.88 67.295 57.9909 65.6825 58.6359C63.9267 59.3884 61.7767 59.7826 59.1967 59.7826C57.5483 59.7826 55.9358 59.6392 54.3233 59.3167C53.0692 59.1017 51.815 58.7076 50.6683 58.1701C50.4175 58.0267 50.2383 57.7759 50.2742 57.4892V51.2542C50.2742 51.1467 50.31 51.0034 50.4175 50.9317C50.525 50.8601 50.6325 50.8959 50.74 50.9675C52.1375 51.7917 53.6067 52.3651 55.1833 52.7234C56.545 53.0817 57.9783 53.2609 59.4117 53.2609C60.845 53.2609 61.7408 53.0817 62.3858 52.7592C62.9592 52.5084 63.3533 51.8992 63.3533 51.2542C63.3533 50.7525 63.0667 50.2867 62.4933 49.8209C61.92 49.355 60.7375 48.8176 58.9817 48.1367C57.1542 47.4917 55.47 46.6317 53.8933 45.5567C52.7825 44.7684 51.8508 43.7292 51.17 42.5109C50.5967 41.3642 50.31 40.1101 50.3458 38.8559C50.3458 37.315 50.7758 35.8459 51.5642 34.5201C52.46 33.0867 53.7858 31.9401 55.3267 31.2234C57.0108 30.3634 59.125 29.9692 61.6692 29.9692C63.1383 29.9692 64.6433 30.0767 66.1125 30.2917C67.1875 30.435 68.2267 30.7217 69.1942 31.1159C69.3375 31.1517 69.4808 31.2951 69.5525 31.4384C69.5883 31.5817 69.6242 31.725 69.6242 31.8684V37.7092C69.6242 37.8526 69.5525 37.9959 69.445 38.0676C69.1225 38.1392 68.9433 38.1392 68.8 38.0676C67.725 37.4942 66.5783 37.1001 65.36 36.8492C64.0342 36.5625 62.7083 36.3834 61.3467 36.3834C60.63 36.3475 59.8775 36.4551 59.1967 36.6342C58.7308 36.7417 58.3367 36.9925 58.0858 37.3509C57.9067 37.6376 57.7992 37.9959 57.7992 38.3184C57.7992 38.6409 57.9425 38.9634 58.1575 39.25C58.48 39.6442 58.91 39.9667 59.3758 40.2176C60.2 40.6476 61.06 41.0417 61.92 41.4001C63.855 42.045 65.7183 42.9409 67.4383 44.0159C68.6208 44.7684 69.5883 45.7717 70.2692 46.9901C70.8425 48.1367 71.1292 49.3909 71.0933 50.6809C71.1292 52.3651 70.6275 54.0492 69.6958 55.4467Z" fill="white"/>
<path d="M35.2958 28.8572C33.97 28.3197 32.5366 28.1047 31.0675 28.1405C30.1358 28.1405 29.3116 28.1405 28.6308 28.1764C27.9141 28.1405 27.4125 28.1764 27.1616 28.2122V40.2522C27.6633 40.288 28.1291 40.3239 28.5591 40.3239H30.4583C31.8558 40.3239 33.2533 40.1089 34.5791 39.6789C35.7258 39.3564 36.7291 38.6755 37.5175 37.7797C38.27 36.8839 38.6283 35.6655 38.6283 34.0889C38.6641 32.978 38.3775 31.8672 37.8041 30.8997C37.195 29.968 36.335 29.2514 35.2958 28.8572Z" fill="white"/>
</g>
</g>
</g>
<defs>
<clipPath id="clip0_9_888">
<rect width="86" height="83" fill="white" transform="translate(0 0.1875)"/>
</clipPath>
<clipPath id="clip1_9_888">
<rect width="86" height="83" fill="white" transform="translate(0 0.1875)"/>
</clipPath>
<clipPath id="clip2_9_888">
<rect width="86" height="83.85" fill="white" transform="translate(0 -0.238281)"/>
</clipPath>
</defs>
</svg>
