<svg width="86" height="84" viewBox="0 0 86 84" fill="none" xmlns="http://www.w3.org/2000/svg">
<g clip-path="url(#clip0_9_1144)">
<g clip-path="url(#clip1_9_1144)">
<g clip-path="url(#clip2_9_1144)">
<path d="M70.7708 0.152344H15.2292C6.80833 0.152344 0 6.96068 0 15.3815V68.7732C0 77.194 6.80833 84.0023 15.2292 84.0023H70.7708C79.1917 84.0023 86 77.194 86 68.7732V15.3815C86 6.96068 79.1917 0.152344 70.7708 0.152344ZM44.29 41.8982C42.8567 43.9048 40.85 45.4098 38.5208 46.2698C36.0842 47.1657 33.3967 47.4882 30.4583 47.4882C29.5983 47.4882 29.025 47.4882 28.6667 47.4523C28.3083 47.4165 27.8067 47.4165 27.1258 47.4165V58.919C27.1617 59.1698 26.9825 59.3848 26.7317 59.4207H19.78C19.4933 59.4207 19.35 59.2773 19.35 58.9548V22.0823C19.35 21.8315 19.4575 21.6882 19.7083 21.6882C20.3175 21.6882 20.8908 21.6882 21.715 21.6523C22.575 21.6165 23.4708 21.6165 24.4383 21.5807C25.4058 21.5448 26.445 21.5448 27.5558 21.509C28.6667 21.4732 29.7417 21.4732 30.8167 21.4732C33.755 21.4732 36.1917 21.8315 38.1983 22.584C39.99 23.1932 41.6383 24.1965 43 25.5223C44.1467 26.669 45.0425 28.0665 45.6158 29.6073C46.1533 31.1123 46.44 32.6532 46.44 34.2657C46.44 37.3473 45.7233 39.8915 44.29 41.8982ZM69.6958 55.8373C68.6925 57.2707 67.295 58.3815 65.6825 59.0265C63.9267 59.779 61.7767 60.1732 59.1967 60.1732C57.5483 60.1732 55.9358 60.0298 54.3233 59.7073C53.0692 59.4923 51.815 59.0982 50.6683 58.5607C50.4175 58.4173 50.2383 58.1665 50.2742 57.8798V51.6448C50.2742 51.5373 50.31 51.394 50.4175 51.3223C50.525 51.2507 50.6325 51.2865 50.74 51.3582C52.1375 52.1823 53.6067 52.7557 55.1833 53.114C56.545 53.4723 57.9783 53.6515 59.4117 53.6515C60.845 53.6515 61.7408 53.4723 62.3858 53.1498C62.9592 52.899 63.3533 52.2898 63.3533 51.6448C63.3533 51.1432 63.0667 50.6773 62.4933 50.2115C61.92 49.7457 60.7375 49.2082 58.9817 48.5273C57.1542 47.8823 55.47 47.0223 53.8933 45.9473C52.7825 45.159 51.8508 44.1198 51.17 42.9015C50.5967 41.7548 50.31 40.5007 50.3458 39.2465C50.3458 37.7057 50.7758 36.2365 51.5642 34.9107C52.46 33.4773 53.7858 32.3307 55.3267 31.614C57.0108 30.754 59.125 30.3598 61.6692 30.3598C63.1383 30.3598 64.6433 30.4673 66.1125 30.6823C67.1875 30.8257 68.2267 31.1123 69.1942 31.5065C69.3375 31.5423 69.4808 31.6857 69.5525 31.829C69.5883 31.9723 69.6242 32.1157 69.6242 32.259V38.0998C69.6242 38.2432 69.5525 38.3865 69.445 38.4582C69.1225 38.5298 68.9433 38.5298 68.8 38.4582C67.725 37.8848 66.5783 37.4907 65.36 37.2398C64.0342 36.9532 62.7083 36.774 61.3467 36.774C60.63 36.7382 59.8775 36.8457 59.1967 37.0248C58.7308 37.1323 58.3367 37.3832 58.0858 37.7415C57.9067 38.0282 57.7992 38.3865 57.7992 38.709C57.7992 39.0315 57.9425 39.354 58.1575 39.6407C58.48 40.0348 58.91 40.3573 59.3758 40.6082C60.2 41.0382 61.06 41.4323 61.92 41.7907C63.855 42.4357 65.7183 43.3315 67.4383 44.4065C68.6208 45.159 69.5883 46.1623 70.2692 47.3807C70.8425 48.5273 71.1292 49.7815 71.0933 51.0715C71.1292 52.7557 70.6275 54.4398 69.6958 55.8373Z" fill="white"/>
<path d="M35.2958 29.2478C33.97 28.7103 32.5366 28.4953 31.0675 28.5312C30.1358 28.5312 29.3116 28.5312 28.6308 28.567C27.9141 28.5312 27.4125 28.567 27.1616 28.6028V40.6428C27.6633 40.6787 28.1291 40.7145 28.5591 40.7145H30.4583C31.8558 40.7145 33.2533 40.4995 34.5791 40.0695C35.7258 39.747 36.7291 39.0662 37.5175 38.1703C38.27 37.2745 38.6283 36.0562 38.6283 34.4795C38.6641 33.3687 38.3775 32.2578 37.8041 31.2903C37.195 30.3587 36.335 29.642 35.2958 29.2478Z" fill="white"/>
</g>
</g>
</g>
<defs>
<clipPath id="clip0_9_1144">
<rect width="86" height="83" fill="white" transform="translate(0 0.578125)"/>
</clipPath>
<clipPath id="clip1_9_1144">
<rect width="86" height="83" fill="white" transform="translate(0 0.578125)"/>
</clipPath>
<clipPath id="clip2_9_1144">
<rect width="86" height="83.85" fill="white" transform="translate(0 0.152344)"/>
</clipPath>
</defs>
</svg>
