<svg width="60" height="60" viewBox="0 0 60 60" fill="none" xmlns="http://www.w3.org/2000/svg">
<g clip-path="url(#clip0_9_1896)">
<g clip-path="url(#clip1_9_1896)">
<path d="M49.375 -0.25H10.625C4.75 -0.25 0 4.5 0 10.375V47.625C0 53.5 4.75 58.25 10.625 58.25H49.375C55.25 58.25 60 53.5 60 47.625V10.375C60 4.5 55.25 -0.25 49.375 -0.25ZM30.9 28.875C29.9 30.275 28.5 31.325 26.875 31.925C25.175 32.55 23.3 32.775 21.25 32.775C20.65 32.775 20.25 32.775 20 32.75C19.75 32.725 19.4 32.725 18.925 32.725V40.75C18.95 40.925 18.825 41.075 18.65 41.1H13.8C13.6 41.1 13.5 41 13.5 40.775V15.05C13.5 14.875 13.575 14.775 13.75 14.775C14.175 14.775 14.575 14.775 15.15 14.75C15.75 14.725 16.375 14.725 17.05 14.7C17.725 14.675 18.45 14.675 19.225 14.65C20 14.625 20.75 14.625 21.5 14.625C23.55 14.625 25.25 14.875 26.65 15.4C27.9 15.825 29.05 16.525 30 17.45C30.8 18.25 31.425 19.225 31.825 20.3C32.2 21.35 32.4 22.425 32.4 23.55C32.4 25.7 31.9 27.475 30.9 28.875ZM48.625 38.6C47.925 39.6 46.95 40.375 45.825 40.825C44.6 41.35 43.1 41.625 41.3 41.625C40.15 41.625 39.025 41.525 37.9 41.3C37.025 41.15 36.15 40.875 35.35 40.5C35.175 40.4 35.05 40.225 35.075 40.025V35.675C35.075 35.6 35.1 35.5 35.175 35.45C35.25 35.4 35.325 35.425 35.4 35.475C36.375 36.05 37.4 36.45 38.5 36.7C39.45 36.95 40.45 37.075 41.45 37.075C42.45 37.075 43.075 36.95 43.525 36.725C43.925 36.55 44.2 36.125 44.2 35.675C44.2 35.325 44 35 43.6 34.675C43.2 34.35 42.375 33.975 41.15 33.5C39.875 33.05 38.7 32.45 37.6 31.7C36.825 31.15 36.175 30.425 35.7 29.575C35.3 28.775 35.1 27.9 35.125 27.025C35.125 25.95 35.425 24.925 35.975 24C36.6 23 37.525 22.2 38.6 21.7C39.775 21.1 41.25 20.825 43.025 20.825C44.05 20.825 45.1 20.9 46.125 21.05C46.875 21.15 47.6 21.35 48.275 21.625C48.375 21.65 48.475 21.75 48.525 21.85C48.55 21.95 48.575 22.05 48.575 22.15V26.225C48.575 26.325 48.525 26.425 48.45 26.475C48.225 26.525 48.1 26.525 48 26.475C47.25 26.075 46.45 25.8 45.6 25.625C44.675 25.425 43.75 25.3 42.8 25.3C42.3 25.275 41.775 25.35 41.3 25.475C40.975 25.55 40.7 25.725 40.525 25.975C40.4 26.175 40.325 26.425 40.325 26.65C40.325 26.875 40.425 27.1 40.575 27.3C40.8 27.575 41.1 27.8 41.425 27.975C42 28.275 42.6 28.55 43.2 28.8C44.55 29.25 45.85 29.875 47.05 30.625C47.875 31.15 48.55 31.85 49.025 32.7C49.425 33.5 49.625 34.375 49.6 35.275C49.625 36.45 49.275 37.625 48.625 38.6Z" fill="white"/>
<path d="M24.6252 20.0495C23.7002 19.6745 22.7002 19.5245 21.6752 19.5495C21.0252 19.5495 20.4502 19.5495 19.9752 19.5745C19.4752 19.5495 19.1252 19.5745 18.9502 19.5995V27.9995C19.3002 28.0245 19.6252 28.0495 19.9252 28.0495H21.2502C22.2252 28.0495 23.2002 27.8995 24.1252 27.5995C24.9252 27.3745 25.6252 26.8995 26.1752 26.2745C26.7002 25.6495 26.9502 24.7995 26.9502 23.6995C26.9752 22.9245 26.7752 22.1495 26.3752 21.4745C25.9502 20.8245 25.3502 20.3245 24.6252 20.0495Z" fill="white"/>
</g>
</g>
<defs>
<clipPath id="clip0_9_1896">
<rect width="60" height="58" fill="white"/>
</clipPath>
<clipPath id="clip1_9_1896">
<rect width="60" height="58.5" fill="white" transform="translate(0 -0.25)"/>
</clipPath>
</defs>
</svg>
