<svg width="87" height="84" viewBox="0 0 87 84" fill="none" xmlns="http://www.w3.org/2000/svg">
<g clip-path="url(#clip0_9_1168)">
<g clip-path="url(#clip1_9_1168)">
<g clip-path="url(#clip2_9_1168)">
<path d="M43.0205 84.5781C66.7688 84.5781 86.0205 65.3264 86.0205 41.5781C86.0205 17.8299 66.7688 -1.42188 43.0205 -1.42188C19.2723 -1.42188 0.0205078 17.8299 0.0205078 41.5781C0.0205078 65.3264 19.2723 84.5781 43.0205 84.5781Z" fill="#4353FF"/>
<path d="M55.6519 36.4714L51.755 48.7533C51.755 47.8126 49.0675 27.4414 49.0675 27.4414C42.8863 27.4414 39.6075 31.822 37.8875 36.4714L33.1306 48.7802C33.1306 47.8933 32.4588 36.5789 32.4588 36.5789C32.2293 34.1296 31.1096 31.8494 29.3116 30.1704C27.5137 28.4913 25.1624 27.5299 22.7031 27.4683L27.7556 58.3208C34.2056 58.3208 37.6994 53.9401 39.5 49.2908L43.5313 38.8095C43.5313 39.2395 46.2188 58.3208 46.2188 58.3208C48.8562 58.3174 51.4241 57.4742 53.5502 55.9134C55.6763 54.3527 57.2502 52.1554 58.0438 49.6402L67.1812 27.4414C60.7312 27.4414 57.345 31.822 55.625 36.4714H55.6519Z" fill="white"/>
</g>
</g>
</g>
<defs>
<clipPath id="clip0_9_1168">
<rect width="86" height="83" fill="white" transform="translate(0.0205078 0.078125)"/>
</clipPath>
<clipPath id="clip1_9_1168">
<rect width="86" height="83" fill="white" transform="translate(0.0205078 0.078125)"/>
</clipPath>
<clipPath id="clip2_9_1168">
<rect width="86" height="86" fill="white" transform="translate(0.0205078 -1.42188)"/>
</clipPath>
</defs>
</svg>
