<svg width="87" height="84" viewBox="0 0 87 84" fill="none" xmlns="http://www.w3.org/2000/svg">
<g clip-path="url(#clip0_9_914)">
<g clip-path="url(#clip1_9_914)">
<g clip-path="url(#clip2_9_914)">
<path d="M43.0205 85.1875C66.7688 85.1875 86.0205 65.9357 86.0205 42.1875C86.0205 18.4393 66.7688 -0.8125 43.0205 -0.8125C19.2723 -0.8125 0.0205078 18.4393 0.0205078 42.1875C0.0205078 65.9357 19.2723 85.1875 43.0205 85.1875Z" fill="#4353FF"/>
<path d="M55.6518 37.0808L51.7549 49.3626C51.7549 48.422 49.0674 28.0508 49.0674 28.0508C42.8861 28.0508 39.6074 32.4314 37.8874 37.0808L33.1305 49.3895C33.1305 48.5027 32.4586 37.1883 32.4586 37.1883C32.2292 34.7389 31.1094 32.4588 29.3115 30.7798C27.5136 29.1007 25.1623 28.1393 22.703 28.0777L27.7555 58.9302C34.2055 58.9302 37.6993 54.5495 39.4999 49.9001L43.5311 39.4189C43.5311 39.8489 46.2186 58.9302 46.2186 58.9302C48.8561 58.9268 51.424 58.0836 53.5501 56.5228C55.6762 54.9621 57.2501 52.7648 58.0436 50.2495L67.1811 28.0508C60.7311 28.0508 57.3449 32.4314 55.6249 37.0808H55.6518Z" fill="white"/>
</g>
</g>
</g>
<defs>
<clipPath id="clip0_9_914">
<rect width="86" height="83" fill="white" transform="translate(0.0205078 0.6875)"/>
</clipPath>
<clipPath id="clip1_9_914">
<rect width="86" height="83" fill="white" transform="translate(0.0205078 0.6875)"/>
</clipPath>
<clipPath id="clip2_9_914">
<rect width="86" height="86" fill="white" transform="translate(0.0205078 -0.8125)"/>
</clipPath>
</defs>
</svg>
