<svg width="60" height="60" viewBox="0 0 60 60" fill="none" xmlns="http://www.w3.org/2000/svg">
<g clip-path="url(#clip0_9_1920)">
<g clip-path="url(#clip1_9_1920)">
<path d="M30 59C46.5685 59 60 45.5685 60 29C60 12.4315 46.5685 -1 30 -1C13.4315 -1 0 12.4315 0 29C0 45.5685 13.4315 59 30 59Z" fill="#4353FF"/>
<path d="M38.8127 25.4367L36.0939 34.0055C36.0939 33.3492 34.2189 19.1367 34.2189 19.1367C29.9064 19.1367 27.6189 22.193 26.4189 25.4367L23.1002 34.0242C23.1002 33.4055 22.6314 25.5117 22.6314 25.5117C22.4714 23.8029 21.6902 22.2121 20.4358 21.0407C19.1814 19.8692 17.541 19.1985 15.8252 19.1555L19.3502 40.6805C23.8502 40.6805 26.2877 37.6242 27.5439 34.3805L30.3564 27.068C30.3564 27.368 32.2314 40.6805 32.2314 40.6805C34.0716 40.6781 35.8631 40.0898 37.3464 39.0009C38.8298 37.912 39.9278 36.3791 40.4814 34.6242L46.8564 19.1367C42.3564 19.1367 39.9939 22.193 38.7939 25.4367H38.8127Z" fill="white"/>
</g>
</g>
<defs>
<clipPath id="clip0_9_1920">
<rect width="60" height="58" fill="white"/>
</clipPath>
<clipPath id="clip1_9_1920">
<rect width="60" height="60" fill="white" transform="translate(0 -1)"/>
</clipPath>
</defs>
</svg>
